<svg width="36" height="36" viewBox="0 0 36 36" fill="none" xmlns="http://www.w3.org/2000/svg">
<rect width="36" height="36" rx="4" fill="#E84C4F"/>
<path d="M25.9577 18.15C25.9577 18.9001 25.3577 19.5001 24.6077 19.5001H19.2077V24.6001C19.2077 25.3501 18.6077 25.9501 17.8577 25.9501C17.1077 25.9501 16.5077 25.3501 16.5077 24.6001V19.5001H11.4077C10.6577 19.5001 10.0577 18.9001 10.0577 18.15C10.0577 17.4 10.6577 16.8 11.4077 16.8H16.5077V11.4C16.5077 10.65 17.1077 10.05 17.8577 10.05C18.6077 10.05 19.2077 10.65 19.2077 11.4V16.8H24.6077C25.3577 16.8 25.9577 17.4 25.9577 18.15Z" fill="white"/>
</svg>
